<svg width="700" height="701" viewBox="0 0 700 701" fill="none" xmlns="http://www.w3.org/2000/svg">
<path d="M618.723 573.25C654.616 530.054 679.578 478.848 691.498 423.964C703.417 369.08 701.944 312.133 687.202 257.939C672.46 203.746 644.883 153.899 606.804 112.617C568.724 71.3339 521.263 39.8291 468.434 20.767C415.604 1.7049 358.961 -4.35373 303.295 3.10353C247.63 10.5608 194.579 31.3146 148.629 63.6095C102.68 95.9044 65.1843 138.791 39.3136 188.64C13.4429 238.49 -0.0418098 293.837 9.73798e-05 350C0.0196772 431.655 28.7953 510.695 81.2776 573.25L80.7776 573.665C82.5276 575.778 84.5276 577.583 86.3326 579.645C88.5826 582.235 90.9926 584.645 93.3326 587.165C100.333 594.748 107.518 602.045 115.083 608.915C117.37 610.993 119.743 612.945 122.083 614.958C130.083 621.855 138.293 628.388 146.833 634.49C147.935 635.27 148.913 636.223 150.023 637.005V636.688C208.575 677.892 278.425 700.005 350.023 700.005C421.62 700.005 491.47 677.892 550.023 636.688V637C551.133 636.218 552.11 635.265 553.213 634.485C561.743 628.383 569.963 621.85 577.963 614.953C580.303 612.953 582.675 610.988 584.963 608.91C592.525 602.038 599.713 594.74 606.713 587.16C609.045 584.645 611.448 582.23 613.713 579.64C615.51 577.578 617.518 575.773 619.268 573.66L618.723 573.25ZM350 150C372.25 150 394.001 156.598 412.502 168.96C431.002 181.322 445.422 198.892 453.937 219.448C462.451 240.005 464.679 262.625 460.338 284.448C455.998 306.271 445.283 326.316 429.55 342.05C413.816 357.783 393.771 368.498 371.948 372.839C350.125 377.18 327.505 374.952 306.948 366.437C286.392 357.922 268.821 343.503 256.46 325.002C244.098 306.501 237.5 284.751 237.5 262.5C237.5 232.663 249.353 204.049 270.451 182.951C291.548 161.853 320.163 150 350 150V150ZM150.178 573.25C150.609 540.424 163.948 509.088 187.309 486.022C210.669 462.957 242.171 450.016 275 450H425C457.829 450.017 489.331 462.957 512.691 486.023C536.051 509.089 549.39 540.425 549.823 573.25C494.994 622.657 423.805 650 350 650C276.195 650 205.006 622.657 150.178 573.25Z" fill="#34495E"/>
</svg>
