<svg width="800" height="800" viewBox="0 0 800 800" fill="none" xmlns="http://www.w3.org/2000/svg">
<path d="M683.267 516.666H116.667V683.333H683.267V516.666ZM731.483 482.396L732.203 484.453L732.973 487.816L733.27 491.103V708.333C733.27 720.99 723.863 731.45 711.663 733.106L708.27 733.333H91.6667C79.0101 733.333 68.5504 723.926 66.8951 711.726L66.6667 708.333V491.686L66.7281 489.923L67.0904 487.073C67.4284 485.28 67.9471 483.573 68.6314 481.956L160.608 281.334C164.172 273.56 171.415 268.227 179.718 267.015L183.333 266.753L267.994 266.727L241.696 312.402L239.427 316.727L199.367 316.733L130.6 466.66H669L601.427 321.794L630.173 271.884C632.393 273.579 634.337 275.652 635.903 278.036L637.657 281.184L731.483 482.396ZM445.507 68.5214L448.553 70.0204L621.49 170.125C632.43 176.457 636.777 189.84 632.12 201.242L630.623 204.296L537.067 366.7L575 366.72C588.807 366.72 600 377.913 600 391.72C600 404.376 590.593 414.836 578.393 416.493L575 416.72L508.267 416.7L508.237 416.8H372.303L372.2 416.7L225 416.72C211.193 416.72 200 405.526 200 391.72C200 379.063 209.405 368.603 221.608 366.95L225 366.72L285.767 366.7L279.715 363.21C268.776 356.876 264.428 343.493 269.087 332.09L270.582 329.036L414.47 79.1784C420.783 68.2108 434.133 63.8521 445.507 68.5214ZM445.197 125.843L326.26 332.373L385.533 366.7H479.433L574.933 200.939L445.197 125.843Z" fill="#FF8101"/>
</svg>
