<svg width="230" height="230" viewBox="0 0 230 230" fill="none" xmlns="http://www.w3.org/2000/svg">
<path d="M0.333374 64.3335C0.333374 28.9873 28.9871 0.333496 64.3334 0.333496H165.667C201.013 0.333496 229.667 28.9873 229.667 64.3335V165.667C229.667 201.013 201.013 229.667 165.667 229.667H64.3334C28.9871 229.667 0.333374 201.013 0.333374 165.667V64.3335Z" fill="#EF476F" fill-opacity="0.2" stroke="#EF476F" stroke-width="0.00256"/>
<path fill-rule="evenodd" clip-rule="evenodd" d="M63.6185 63.6188C66.221 61.0164 70.4404 61.0164 73.0428 63.6188L166.381 156.958C168.984 159.56 168.984 163.779 166.381 166.382C163.779 168.984 159.56 168.984 156.957 166.382L63.6185 73.0431C61.0162 70.4406 61.0162 66.2212 63.6185 63.6188Z" fill="#EF476F" stroke="#EF476F" stroke-width="0.00256"/>
<path fill-rule="evenodd" clip-rule="evenodd" d="M166.381 63.6189C168.984 66.2213 168.984 70.4407 166.381 73.0432L73.0427 166.382C70.4403 168.984 66.2209 168.984 63.6185 166.382C61.0161 163.779 61.0162 159.56 63.6186 156.958L156.957 63.6188C159.56 61.0163 163.779 61.0164 166.381 63.6189Z" fill="#EF476F" stroke="#EF476F" stroke-width="0.00256"/>
</svg>
